<svg id="Layer_1" data-name="Layer 1" xmlns="http://www.w3.org/2000/svg" xmlns:xlink="http://www.w3.org/1999/xlink" viewBox="0 0 1115.74 1080.43"><defs><style>.cls-1{fill:none;}.cls-2{clip-path:url(#clip-path);}.cls-3{fill:#09090d;}.cls-4{fill:#182b3b;}.cls-5{fill:#ba8566;}.cls-6{fill:#6e493f;}.cls-7{fill:#e1d1ff;}.cls-8{fill:#8e5c46;}.cls-9{fill:#6b2d27;}</style><clipPath id="clip-path" transform="translate(35.53 0.53)"><circle class="cls-1" cx="540" cy="539.69" r="540.21"/></clipPath></defs><g class="cls-2"><polygon class="cls-3" points="936.97 518.24 936.97 630.68 824.54 630.68 824.54 668.15 749.58 668.15 749.58 555.72 674.62 555.72 674.62 518.24 712.1 518.24 712.1 480.76 749.58 480.76 749.58 368.33 674.62 368.33 674.62 405.8 637.14 405.8 637.14 555.72 674.62 555.72 674.62 668.15 637.14 668.15 637.14 705.63 599.67 705.63 599.67 743.12 562.18 743.12 562.18 780.6 524.7 780.6 524.7 818.07 412.27 818.07 412.27 780.6 374.78 780.6 374.78 743.12 337.31 743.12 337.31 668.15 374.78 668.15 374.78 705.63 449.75 705.63 449.75 668.15 487.23 668.15 487.23 630.68 562.18 630.68 562.18 480.76 599.67 480.76 599.67 405.8 562.18 405.8 562.18 255.88 599.67 255.88 599.67 218.41 562.18 218.41 562.18 180.93 337.31 180.93 337.31 143.45 374.78 143.45 374.78 105.98 449.75 105.98 449.75 70.65 637.14 70.65 637.14 105.98 712.1 105.98 712.1 143.45 749.58 143.45 749.58 180.93 787.05 180.93 787.05 218.41 824.54 218.41 824.54 330.85 862.02 330.85 862.02 480.76 899.5 480.76 899.5 518.24 936.97 518.24"/><polygon class="cls-4" points="1080.42 930.51 1080.42 1080.43 1009.78 1080.43 1009.78 1080.42 112.43 1080.42 112.43 1042.95 149.91 1042.95 149.91 1005.47 187.4 1005.47 187.4 967.99 224.88 967.99 224.88 930.5 262.35 930.5 262.35 893.03 337.31 893.03 337.31 855.55 487.23 855.55 487.23 930.5 524.7 930.5 524.7 967.99 562.18 967.99 562.18 1005.47 599.67 1005.47 599.67 1042.95 712.1 1042.95 712.1 1005.47 749.58 1005.47 749.58 967.99 787.05 967.99 787.05 930.5 824.54 930.5 824.54 855.55 862.02 855.55 862.02 818.07 974.45 818.07 974.45 855.55 1009.78 855.55 1009.78 893.03 1045.1 893.03 1045.1 930.51 1080.42 930.51"/><polygon class="cls-5" points="862.02 780.6 862.02 855.55 824.54 855.55 824.54 930.5 787.05 930.5 787.05 967.99 749.58 967.99 749.58 1005.47 712.1 1005.47 712.1 1042.95 599.67 1042.95 599.67 1005.47 562.18 1005.47 562.18 967.99 524.7 967.99 524.7 930.5 487.23 930.5 487.23 818.07 524.7 818.07 524.7 780.6 562.18 780.6 562.18 743.12 599.67 743.12 599.67 705.63 637.14 705.63 637.14 668.15 674.62 668.15 674.62 555.72 749.58 555.72 749.58 668.15 787.05 668.15 787.05 743.12 824.54 743.12 824.54 780.6 862.02 780.6"/><polygon class="cls-5" points="749.58 368.33 749.58 480.76 712.1 480.76 712.1 518.24 674.62 518.24 674.62 555.72 637.14 555.72 637.14 405.8 674.62 405.8 674.62 368.33 749.58 368.33"/><polygon class="cls-6" points="562.18 555.72 562.18 630.68 487.23 630.68 487.23 593.2 524.7 593.2 524.7 555.72 562.18 555.72"/><rect class="cls-6" x="449.75" y="630.68" width="37.48" height="37.47"/><rect class="cls-3" x="449.75" y="368.33" width="37.48" height="37.47"/><rect class="cls-3" x="337.31" y="330.85" width="112.44" height="37.48"/><polygon class="cls-7" points="1080.42 0 1080.42 930.51 1045.1 930.51 1045.1 893.03 1009.78 893.03 1009.78 855.55 974.45 855.55 974.45 818.07 862.02 818.07 862.02 780.6 824.54 780.6 824.54 743.12 787.05 743.12 787.05 668.15 824.54 668.15 824.54 630.68 936.97 630.68 936.97 518.24 899.5 518.24 899.5 480.76 862.02 480.76 862.02 330.85 824.54 330.85 824.54 218.41 787.05 218.41 787.05 180.93 749.58 180.93 749.58 143.45 712.1 143.45 712.1 105.98 637.14 105.98 637.14 70.65 449.75 70.65 449.75 105.98 374.78 105.98 374.78 143.45 337.31 143.45 337.31 255.88 299.83 255.88 299.83 443.28 262.35 443.28 262.35 518.24 224.88 518.24 224.88 555.72 299.83 555.72 299.83 668.15 337.31 668.15 337.31 743.12 374.78 743.12 374.78 780.6 412.27 780.6 412.27 818.07 487.23 818.07 487.23 855.55 337.31 855.55 337.31 893.03 262.35 893.03 262.35 930.5 224.88 930.5 224.88 967.99 187.4 967.99 187.4 1005.47 149.91 1005.47 149.91 1042.95 112.43 1042.95 112.43 1080.42 0 1080.42 0 0 1080.42 0"/><polygon class="cls-3" points="412.27 593.2 412.27 668.15 374.78 668.15 374.78 630.68 299.83 630.68 299.83 593.2 412.27 593.2"/><rect class="cls-3" x="374.78" y="405.8" width="37.49" height="37.48"/><path class="cls-5" d="M564.14,255.35V217.88H526.65V180.4H301.78v74.95H264.3v187.4H226.82v75H189.35v37.48h75v37.48H376.74v75H339.25V705.1h75v-75H451.7V592.67h37.47V555.19h37.48v-75h37.49v-75H526.65V255.35ZM451.7,405.27h-75v37.48H339.25V405.27H301.78V330.32H414.22V367.8H451.7Z" transform="translate(35.53 0.53)"/><rect class="cls-8" x="337.31" y="368.33" width="112.44" height="37.47"/><rect class="cls-9" x="299.83" y="630.68" width="74.95" height="37.47"/><rect class="cls-7" x="1044.89" y="-0.53" width="35.32" height="848.41" transform="translate(2160.64 847.88) rotate(180)"/></g></svg>