<?xml version="1.0" encoding="utf-8"?>
<!-- Generator: Adobe Illustrator 24.2.1, SVG Export Plug-In . SVG Version: 6.00 Build 0)  -->
<svg version="1.1" id="Layer_1" xmlns="http://www.w3.org/2000/svg" xmlns:xlink="http://www.w3.org/1999/xlink" x="0px" y="0px"
	 viewBox="0 0 3702.2 1057.2" style="enable-background:new 0 0 3702.2 1057.2;" xml:space="preserve">
<style type="text/css">
	.st0{fill:#FFFFFF;}
</style>
<path d="M2229.6,54.7c3,1.8,5.8,3.4,8.6,5.2c114.5,73.8,229.1,147.5,343.7,221.2c6,3.8,8.7,7.7,8.6,15c-0.4,39-0.2,77.9-0.2,116.9
	v9.3H2526c-0.2-3.8-0.5-7.3-0.5-10.8c0-25-0.1-50,0.1-75c0.1-5.5-1.4-9-6.3-12.2c-95-61-189.9-122.1-284.8-183.3
	c-1.4-0.9-2.9-1.6-4.9-2.8c-2.7,1.6-5.6,3.1-8.3,4.9c-93.3,60-186.5,120-279.8,180c-5.7,3.7-7.8,7.6-7.8,14.4
	c0.2,121.3,0.2,242.5,0,363.7c0,5.9,1.5,9.6,6.7,13c94.8,60.8,189.4,121.7,284,182.8c1.4,0.9,2.9,1.7,5.3,3.2l117-75.3
	c2.4,7.6,3.1,59.4,1.3,82.6l-118.1,76.1c-3.1-1.8-5.9-3.3-8.7-5.1c-114.8-73.9-229.6-147.8-344.5-221.7c-6.1-3.9-8.3-8-8.3-15.2
	c0.2-148.6,0.2-297.1,0-445.7c0-6.9,2.2-10.7,7.9-14.4c115.2-74,230.3-148.1,345.3-222.3C2224.2,57.8,2226.8,56.4,2229.6,54.7z"/>
<path d="M3192.1,582.4l-18.6,2c-1.4-7.3-2.4-13.8-4-20.2c-12.4-51.8-44.3-86-95.2-100.8c-54.1-15.8-108-12.6-160.8,7.3
	c-13.4,5.1-25.9,12.5-36.8,21.8c-21.4,18.2-33,41.5-34.6,69.5c-0.7,10-0.4,20,0.9,29.9c3.7,26.2,17.5,46.3,39.6,60.9
	c17.1,11.3,36,18.9,55.7,24c35.1,9.2,70.5,17.1,105.6,26.3c24.4,6.4,48.6,13.8,72.7,21.6c9.1,2.9,17.7,7.7,26,12.6
	c26.7,15.7,43.5,38.7,50,69.1c5.3,24.7,6.1,49.5,0,74.2c-7.3,29.4-24.2,52.3-48.4,70c-25.8,18.9-55.1,29.4-86.3,35
	c-42.2,7.6-84.3,6.9-125.8-4.7c-74-20.7-115.2-70.5-127.8-145.3c-0.8-4.5-1.2-9.1-1.8-14.6l19-2.6c0.9,5,1.5,9.6,2.6,14
	c3.5,13.2,6.1,26.7,11,39.3c16.6,43,47.3,72.3,91,86.4c56.3,18.1,112.8,17.5,168.5-3.3c20.2-7.5,38.3-18.7,53.3-34.4
	c17.4-18.3,27.4-40.1,28.5-65.4c0.6-11,0.2-22-1.3-32.8c-4.8-33-23.2-56.7-52.1-72.6c-19.7-10.9-41-17.5-62.7-22.8
	c-39.2-9.4-78.4-18.4-117.5-28c-20.4-4.9-40.2-12.2-58.9-21.8c-41-21.5-61.7-55.3-62-101.7c-0.1-14.4,1.1-28.6,5.1-42.5
	c9.1-31,28.6-53.7,56.1-69.9c23-13.5,48.1-21.1,74.3-25c37.2-5.5,74.4-5.8,111.2,3c33.5,8,63,23.2,86.2,49.3
	c22,24.8,33,54.3,37.1,86.8C3192.2,578.8,3192.2,580.6,3192.1,582.4z"/>
<path d="M3278.1,738.4V977h-18.2c-2-7.2-2.6-514.9-0.6-529.6c2.4-0.2,4.9-0.7,7.5-0.7c63.3,0,126.7,0,190,0.1
	c23.1,0,46,1.9,68.2,8.3c50.3,14.4,81.7,47.1,92.7,98.4c5.4,25.3,5.9,51-0.3,76.3c-11.1,45.2-39.8,75.1-81.9,93
	c-29.1,12.4-59.9,15.2-91,15.4c-51,0.3-102,0.1-153,0.1L3278.1,738.4z M3278.6,718c1.6,0.3,3.2,0.5,4.7,0.6
	c57.6,0,115.3,0.3,172.9-0.3c22.3-0.2,44.5-3.3,65.7-11.3c37.8-14.3,64.6-39.2,75.5-79c5.1-18.5,5.2-37.4,3.2-56.5
	c-5.4-51.2-36.3-86.6-86.5-98.5c-22.2-5.3-44.8-6.4-67.5-6.4c-52.7,0-105.3,0-158,0c-3.2,0-6.5,0.3-10.1,0.5L3278.6,718z"/>
<path d="M2393.2,447.3v13.4c0,103.9-0.2,207.9,0.1,311.8c0.1,22.6,1.1,45.3,3.1,67.8c2.3,26.2,9.8,50.8,24.9,72.9
	c16.9,24.9,40.3,40.5,68.8,48.4c44.6,12.4,89.7,12.6,134.2,0c49.2-13.9,78-47.7,89.8-96.5c6.9-28.7,7.4-58.1,7.5-87.4
	c0.2-105.6,0.2-211.2,0.1-316.8v-13.5h18.9c0.2,3.5,0.6,6.7,0.6,9.9c0,108.6,0,217.2,0,325.8c0,27.7-0.9,55.3-6.7,82.5
	c-12.9,59.7-48.1,99.4-107.2,115.8c-45.9,12.9-94.4,12.8-140.2-0.2c-58.8-16.5-93.9-56.1-106.3-115.4c-3.7-17.5-5.4-35.6-6.1-53.5
	c-1.1-27.3-0.8-54.6-0.8-81.9c-0.1-89.9-0.1-179.9,0-269.8v-13.3L2393.2,447.3L2393.2,447.3z"/>
<path d="M1086.7,656c10.1,10.9,19.8,21.3,30.2,32.5c-8.2,2.5-14.2,2.2-19.5-4.2s-11.3-12.1-17.7-18.7c-3.2,2.9-6,5.5-8.8,8.1
	c-14.6,13.1-31.4,19.7-51.2,17.7c-29.1-3-43.7-30.4-30.2-56.6c4.9-9.5,12.5-16.3,21.5-21.7c3.7-2.2,7.4-4.3,11-6.4
	c-4.9-7.5-10.3-14.3-14.1-22c-9.1-18.5-1.3-38.3,17.5-46.3c8.9-3.9,19.1-4.3,28.3-1.1c17.7,6.1,26.1,26.4,18.5,44.3
	c-3.6,8.6-9.8,14.9-17.3,20.2c-3.8,2.7-7.7,5.1-12.2,8.1l34.6,36.3c9-10.4,12.6-22.9,18-34.7h11.8
	C1103.4,627.9,1095,641.4,1086.7,656z M1070.8,656.4l-39.2-41.2c-10.1,4-19.2,8.8-26,16.8c-8.6,10-10,21.6-5.1,33.5
	c4.6,11.3,14.7,14.6,25.9,15.1c3.3,0.1,6.6-0.2,9.9-0.8C1050.7,676.8,1061.4,668.4,1070.8,656.4z M1034.8,600.9
	c9.8-4.1,18.7-9,24.7-17.8c6.8-10.1,5.8-22.3-2.3-30c-8.1-7.7-21.8-8.7-31.4-2.3c-9.4,6.2-12.5,16.8-8,28
	C1021.4,587.6,1027.4,594.5,1034.8,600.9L1034.8,600.9z"/>
<path d="M1274.2,302.7h11.1c0.4,2.6,0.7,5.1,0.9,7.7c0,26.6,0.2,53.3-0.1,79.9c-0.1,7.3-0.9,14.6-2.4,21.8
	c-6.8,31-31.3,50.2-63.3,50c-35.3-0.3-62.2-24.3-63.9-59.6c-1.5-32.2-0.6-64.5-0.7-96.8c0.2-0.9,0.5-1.7,0.9-2.5h11.1v11.2
	c0,24.6-0.2,49.3,0.1,73.9c-0.1,7.6,0.7,15.3,2.3,22.7c5.9,25.1,25.8,40.3,51.5,39.9c25.4-0.3,45.1-16.3,50.3-41.6
	c1.4-7.2,2.1-14.5,2.1-21.8c0.3-24.6,0.1-49.3,0.1-73.9V302.7z"/>
<path d="M225.6,435.5c1.3,11.8,1.3,11.8-7.8,16c-22.9,10.3-46.6,13.7-71.1,7.3c-38.2-9.9-61.9-45.4-58.3-86.6
	c3.3-37.1,35.6-68.5,73.2-71.5c19.5-1.6,46.6,3.4,62.8,13.4v11.7c-4.1-1.7-7.3-3.1-10.6-4.5c-17.8-7.3-36-12.1-55.5-8.8
	c-28.5,4.8-46.9,21.6-54.4,49.1c-6.3,23-3.3,45.2,12.2,64.2c16.8,20.7,39.6,27.7,65.3,24c11.7-1.7,23-6.4,34.3-9.9
	C218.8,438.9,221.7,437.3,225.6,435.5z"/>
<path d="M1210.6,532.1c20.6,0.8,40.9-2.2,60.9,2.3c24.5,5.5,36.4,25,31.2,49.5c-2.8,13.1-10.7,21.8-22.8,27.1
	c-10,4.4-20.7,4.9-31.3,5.2c-8.3,0.3-16.6,0-26.2,0c-1.1,24.2,0.1,48-0.7,73l-11.1,0.8V532.1z M1222.6,542.9V606
	c9.3,0,17.9,0.2,26.5-0.1c5.3-0.1,10.6-0.6,15.9-1.5c15.5-3,24.6-13.2,25.4-27.8c1-18.7-9.9-32-29.2-33.6
	C1248.7,542.1,1236,542.9,1222.6,542.9L1222.6,542.9z"/>
<path d="M1400.4,303h10.1v66.6c3.2-2,5.1-3,6.8-4.3c32.4-24.1,71.8-7.6,76.2,32.5c3.4,31-12.1,55.7-40.5,62.4
	c-18,4.3-35.6,1.5-52.7-6L1400.4,303z M1410.8,446.5c5.9,1.5,10.9,3.3,16.1,4c33.4,5,58.3-18.1,55.1-50.8c-2-20-14.8-34.6-32.4-36.2
	c-13.3-1.2-23.5,5.4-32.9,13.9c-4.1,3.4-6.4,8.6-6,13.9c0.4,14,0.1,27.9,0.1,41.9L1410.8,446.5L1410.8,446.5z"/>
<path d="M217.9,665.2c7.8,4.3,14,8.1,20.6,11.1c9.3,4.2,19.1,6.1,29.1,2.6c12.4-4.4,20.2-12.9,21.8-26c1.5-12.3-3.3-22.4-13.9-28.8
	c-6.5-3.9-13.7-6.7-20.7-9.9c-6.3-2.9-13-5.3-19.1-8.5c-21.7-11.5-27.3-38.8-11.9-58c12.6-15.8,29.7-19.6,48.5-16.2
	c8,1.5,15.7,5,23.5,7.6v13.5c-5.8-2.6-10.8-5.2-16-7.1c-8.8-3.3-17.8-5.3-27.4-2.9c-13,3.3-22.3,12.8-23.9,25.2
	c-1.6,11.9,3.8,22,16,28.4c7.6,4,15.8,7,23.8,10.4c3.4,1.5,6.8,2.8,10.1,4.4c18.6,9,26.2,23,23.9,43.8
	c-1.8,16.7-15.8,31.9-33.3,35.7c-17.3,3.8-33-0.9-47.7-9.8C215.3,677,218,671.4,217.9,665.2z"/>
<path d="M896.7,634.4h-80c-1.7,16.5,4.1,28.7,16.1,38.2c15.6,12.3,30.5,11.1,61.9-4.7c2,10.5,2,10.5-6.7,15.5
	c-13,7.7-28.5,10.3-43.3,7.3c-10.5-2-19.1-7.5-26.2-15.4c-16.6-18.8-18.4-51.1-3.9-71.6c12.2-17.3,33.3-24.1,53.1-17
	C886.6,593.5,898.3,611.9,896.7,634.4z M883.9,624.7c-3.8-21-15.7-30.9-34.2-29.7c-16.3,1-29.4,14-30,29.7H883.9z"/>
<path d="M565.7,634.3h-79.5c-2.3,16.1,3,28.5,14.8,37.5c21.8,16.7,42.5,8.8,62.6-4.5c1.6,11.2,1.6,11.2-6.4,15.9
	c-23.8,14.1-52.8,10.8-69.5-7.8c-17.5-19.5-18.7-53.3-2.5-74c12.2-15.8,33.4-21.8,52.1-14.6C555.8,593.8,567,611.8,565.7,634.3z
	 M552.4,624.6c-1.5-18.9-13.9-30.2-32.1-29.7c-17.1,0.4-30.8,13.3-31.5,29.7H552.4z"/>
<path d="M723.5,404.3h-78c-4.3,13,0.7,27.7,13.1,37.3c21.7,16.8,42.4,9.6,62.5-3.9c2.6,10.1,2.4,10.7-5.3,15.4
	c-23.1,14-52.1,11.4-69-6.3c-19.2-20.1-20.1-56.1-2-77c12.9-14.8,33.7-19.8,51.9-12.3C712.6,363.9,726.6,383,723.5,404.3z
	 M710.5,394.7c-2.2-19.6-14.8-30.6-33.5-29.6c-16.5,0.9-30.2,14.3-30,29.6H710.5z"/>
<path d="M335.6,437.3c2.8,8.4-0.2,12.8-6.6,16.4c-20.4,11.5-45.8,11.1-62.3-1.6c-25.6-19.7-28.2-62.6-5.2-85.3
	c13.6-13.1,33.8-16.4,50.9-8.5c17,8,27,25.7,25.1,45.7h-78c-4.3,13.3,0.6,28,13,37.6C294.3,458.3,315,451.3,335.6,437.3z
	 M260.6,394.8h63.6c-1.3-18.4-13.4-29.8-31-29.8S261.6,377.8,260.6,394.8L260.6,394.8z"/>
<path d="M976.9,408.2c0,30.9-22.1,53.8-52,53.8s-52.4-23-52.5-53.6c-0.1-31.2,22.4-54.4,52.8-54.2
	C955.2,354.4,976.9,377,976.9,408.2z M924.5,451c23.2,0.1,40.6-17.9,40.9-42.4c0.3-24.2-17.2-43.3-40-43.6
	c-23.5-0.3-41.3,18.2-41.3,43.1C884.1,432.6,901.3,450.9,924.5,451L924.5,451z"/>
<path d="M1311.6,638.3c0.6-27.9,18.3-49.7,42.2-53.4c26.9-4.2,50.2,8.9,58.9,33.2c4.8,12.9,4.7,27.1-0.1,40
	c-8.6,23.7-30.9,36.5-57.2,33c-23.4-3.2-41.5-22.4-43.5-46.4C1311.7,642.1,1311.6,639.5,1311.6,638.3z M1404.3,638.4
	c0.1-19.2-10.8-35.7-27.2-41.3c-28.1-9.6-55.7,12.3-54,42.9c1.1,18.4,11.3,33.2,26.7,38.6C1377.4,688.3,1404.2,668.5,1404.3,638.4
	L1404.3,638.4z"/>
<path d="M1576,397.4c0-5.6,0.2-9.9,0-14.2c-0.8-12-6.5-18.1-18.5-19.7c-8.2-1.1-15.8,1.2-23.1,4.9c-3.8,1.9-7.4,4.2-11.3,6.3
	c-1.7-9.5-1.8-9.6,4.7-13.1c10.8-5.9,22.3-8.6,34.6-6.9c15.3,2.1,24,11.2,24.3,26.6c0.4,19.3,0.1,38.6,0.2,57.8
	c0,3.8,0.7,7.6,1.2,13l15-8.7c1.9,4.6,1.1,8-3,10.4c-2.6,1.5-5,3.4-7.6,4.8c-10.1,5.4-13.5,3.9-17.3-8.1c-2.6,1.4-4.9,3.1-7.5,4
	c-7.1,2.6-14.2,5.9-21.6,6.9c-11.6,1.6-22.9-4.7-27.8-15.3c-4.8-10.6-2.3-23.1,6.1-31.2c4.3-4.2,9.3-7.5,14.8-9.7
	c8-3,16.6-4.5,25-6.4C1567.8,398.2,1571.5,398,1576,397.4z M1576,407.2c-16.6-0.3-31.3,2.2-42.9,13.8c-5.8,5.8-8,13.2-4.6,21
	c3.3,7.5,9.9,10.5,17.7,10.8c11,0.4,19.8-4.7,27.7-11.7c1.2-1.1,1.9-2.7,2-4.3C1576.1,427.2,1576,417.7,1576,407.2L1576,407.2z"/>
<path d="M604,689.3h-10.6V586.7l10-0.5l1.1,16.5l5.6-6.1c10.8-11.8,24.3-14.6,39.3-11c15.2,3.6,25.9,17,26.5,34.8
	c0.7,22.6,0.2,45.3,0.2,68.8h-10.3v-10c0-14.3,0.1-28.7-0.1-43c0-6-0.5-12-1.4-17.9c-2.8-17.1-15.5-26-32.4-22.9
	c-12,2.2-20.4,9.5-26.3,19.7c-1.4,2.4-1.4,5.7-1.4,8.6c-0.1,18.3-0.1,36.6-0.1,55L604,689.3z"/>
<path d="M448.1,459.5c-1.9,0.3-3.8,0.4-5.7,0.5c-1.6-0.2-3.1-0.6-4.6-1v-13c0-13.3,0.1-26.7-0.1-40c0-6-0.5-12-1.4-17.9
	c-2.8-16.8-14.8-25.5-31.5-22.9c-12.4,1.9-21.2,9.4-27.3,19.9c-1.4,2.4-1.3,5.8-1.4,8.7c-0.1,18.3-0.1,36.6-0.1,55v10.5h-10.6V356.8
	h10c0.4,4.8,0.7,9.5,1.2,15.9c2.6-2.9,4.1-4.5,5.6-6.1c11.8-12.6,26.3-15.2,42.1-9.9c15.4,5.2,22.8,17.6,23.5,32.8
	C448.8,412.5,448.1,435.5,448.1,459.5z"/>
<path d="M1625.3,356.8h8.9c0.3,5,0.6,9.5,1,15.6c2.9-2.8,4.9-4.7,6.9-6.7c11.5-11.7,25.5-14,40.5-9.3c14.6,4.6,22,15.7,23.8,30.4
	c1.1,8.9,1.1,17.9,1.2,26.9c0.2,14.9,0,29.8,0,45.5H1697c-0.2-3.2-0.5-6.1-0.5-9c0-16,0.1-32-0.1-48c0-5.3-0.5-10.6-1.5-15.8
	c-3.9-16.8-17.1-24.7-33.9-20.6c-11.1,2.7-18.8,9.8-24.4,19.3c-1.5,2.6-1.7,6.4-1.7,9.6c-0.2,18-0.1,36-0.1,54v10.7l-8.4,0.7
	C1623.4,457.4,1623,368.7,1625.3,356.8z"/>
<path d="M1722.9,587.4l-75.9,155h-10.8c1.6-3.7,2.9-6.7,4.3-9.7c8.9-18.2,17.6-36.6,26.9-54.6c3.1-6,3.2-10.6-0.1-16.6
	c-11.5-21.4-22.4-43.1-33.5-64.7c-1.5-2.9-2.9-5.9-4.3-8.9c9-3.1,9.5-3,13.3,4.3c9.7,18.6,19.2,37.2,28.8,55.9
	c1.5,2.9,3.1,5.7,5.3,9.7c2.1-4,3.7-6.8,5.2-9.7c9.1-18.5,18-37.1,27.2-55.6C1712.7,585.7,1712.8,585.7,1722.9,587.4z"/>
<path d="M826.6,365h-18.5c-0.2-2.7-0.3-4.9-0.5-7.9l18.8-1.6c0-6.3-0.1-12.2,0-18.1c0.2-8.1,2.2-15.8,7-22.5
	c10.5-14.5,28.4-18.3,46.7-9.7v9.1c-4.4-1-8.1-2-12-2.7c-16.7-2.8-28.2,5.5-30,22.4c-0.7,6.8-0.1,13.8-0.1,21.8l18.2,1
	c0.2,2.6,0.4,4.8,0.7,8h-18.3c-2.3,11-0.9,21.3-1.2,31.4c-0.3,10.6,0,21.3,0,31.9v31.4l-10.8,0.7L826.6,365z"/>
<path d="M530.1,355.8v9h-26.7c-0.5,2.4-1.3,4.2-1.3,6.1c-0.1,20.6-0.2,41.3,0.1,61.9c0.3,16.6,6.7,21.3,22.9,17.3
	c3.2-0.8,6.3-1.9,10.3-3.1c0.3,3.2,0.5,6,0.7,8.7c-0.8,0.8-1.8,1.5-2.7,2.1c-8.1,3.7-16.5,5.3-25.3,3.3c-9.4-2-15.2-8.1-16.6-17.6
	c-0.5-4-0.7-8-0.6-12c0-21.6,0-43.2,0-66h-25.8c-0.8-1.9-1.5-2.7-1.5-3.6c0-1.9,0.2-3.8,0.4-5.6h26.4c0.2-7.1,0.5-13.3,0.4-19.4
	c-0.1-7.1,3.7-11.4,10.7-16v34.9L530.1,355.8z"/>
<path d="M403.3,590.1v10.3c-5.5-1.5-10.5-3-15.5-4.2c-26.2-6-47.5,9.7-49.4,36.4c-0.5,5-0.3,10,0.4,14.9
	c3.8,24.3,23.6,37.3,49.3,32.6c5.5-1,10.8-2.5,16.9-4v9.4c-23.8,11.4-53.2,7-67.6-11.3c-14.9-19.1-14.8-51.8,0.5-71.9
	C351.7,584.2,377.6,578.5,403.3,590.1z"/>
<path d="M1613.4,589.9v10.5c-3.2-0.9-5.9-1.5-8.6-2.4c-33.1-10.5-57.6,7.8-56.6,42.4c0.8,28.4,21.2,44.8,49.7,39.8
	c5.5-1,10.9-2.5,17.1-4c0.2,3.5,0.4,6.4,0.6,9c-22,11.4-52.1,7.9-66.7-9.1c-15.9-18.6-16.9-51.9-1.7-72.6
	C1561.8,583.8,1587.7,578.3,1613.4,589.9z"/>
<path d="M782.6,589.9c-0.2,3.7-0.3,6.9-0.5,10.7c-21.1-7.5-41.2-10.8-56.6,9.6c-10.7,14.1-11.6,39.3-1.5,53.8
	c15.7,22.6,37.5,18.3,59.9,12v9.9c-24.1,10.6-52.8,7.1-67.6-12c-14.5-18.7-14.5-51.4,0.4-71C731.3,583.7,756.3,578.5,782.6,589.9z"
	/>
<path d="M1447.9,532.8h8.5c2,7.6,2.8,134.5,1,156.5l-9,0.7C1446.2,681.9,1445.8,543,1447.9,532.8z"/>
<path d="M1330.2,459.5c-2.1,0.3-4.3,0.4-6.4,0.5c-1.4-0.2-2.7-0.5-4-1V356.8h10.4v23.5l1.7,0.4c1.4-1.7,2.8-3.4,4.2-5.1
	c3.2-3.8,6.2-7.8,9.8-11.3c13.1-12.6,24.8-13.2,39.1-2.2c1.6,1.2,3,2.6,4.7,4.1c-0.6,1.6-1.3,3.1-2.1,4.5c-1,1.7-2.2,3.2-3.7,5.3
	c-3.8-2.6-7.2-5.1-10.7-7.5c-7.2-4.9-14.4-4.4-21.4,0.4c-9,6.2-15.2,14.9-20.3,24.3c-1.3,2.4-1.1,5.8-1.1,8.7
	c-0.1,15.6,0,31.3,0,46.9L1330.2,459.5z"/>
<path d="M1007,357.1c1.3-0.4,2.7-0.6,4.1-0.8c1.6,0,3.2,0.3,5.9,0.5V382c3.2-3.4,4.6-4.9,5.9-6.4c4.2-4.6,8.1-9.8,12.8-13.9
	c11.1-9.6,21.6-9.8,33.6-1.6c1.4,0.9,2.7,2,4,3l3.4,2.5c-1,2.3-1.7,4.1-2.6,5.8c-1,1.5-2.1,3-3.3,4.4c-3.5-2.4-6.7-4.6-9.9-6.9
	c-7.8-5.5-15.5-5-23.1,0.6c-8.5,6.3-14.5,14.6-19.4,23.7c-1.3,2.4-1.3,5.8-1.3,8.7c-0.1,15.6-0.1,31.2-0.1,46.9v10.6l-10,0.6
	L1007,357.1L1007,357.1z"/>
<path d="M556.8,357.2c1.4-0.4,2.8-0.6,4.3-0.8c2,0.1,3.9,0.2,5.9,0.5v25.2c3.1-3.3,4.6-4.8,5.9-6.3c4-4.4,7.6-9.3,12-13.3
	c11.8-10.4,22.5-10.8,35.2-1.8c2.1,1.5,4.1,3.3,6.8,5.6l-5.7,9.8c-3.8-2.6-7-4.9-10.2-7.1c-7.8-5.5-15.5-5.1-23.1,0.5
	c-8.5,6.3-14.5,14.6-19.5,23.7c-1.3,2.4-1.3,5.8-1.3,8.7c-0.1,15.6,0,31.2,0,46.9v10.5h-10.3L556.8,357.2z"/>
<path d="M443.4,689.9l-10.2-0.5V586.8h10.2V689.9z"/>
<path d="M1495,689.9V586.8l10.3-0.6v103.2L1495,689.9z"/>
<path d="M433.1,532.8h10.2v17.6h-10.2V532.8z"/>
<path d="M1505.2,550.6h-9.9V533l9.9-0.8V550.6z"/>
<path class="st0" d="M1222.6,542.9c13.4,0,26.1-0.8,38.6,0.2c19.3,1.6,30.2,14.9,29.2,33.6c-0.8,14.6-10,24.8-25.4,27.8
	c-5.3,0.9-10.6,1.4-15.9,1.5c-8.6,0.2-17.2,0.1-26.5,0.1L1222.6,542.9L1222.6,542.9z"/>
</svg>
