<?xml version="1.0" encoding="utf-8"?>
<!-- Generator: Adobe Illustrator 24.2.1, SVG Export Plug-In . SVG Version: 6.00 Build 0)  -->
<svg version="1.1" id="Layer_1" xmlns="http://www.w3.org/2000/svg" xmlns:xlink="http://www.w3.org/1999/xlink" x="0px" y="0px"
	 viewBox="0 0 162 54" style="enable-background:new 0 0 162 54;" xml:space="preserve">
<style type="text/css">
	.st0{fill:#EF4237;}
</style>
<path class="st0" d="M71.3,15.3c-3.6,0-7.3,0.6-9.4,1.5c-0.5,0.2-0.8,0.4-0.8,1v21h7V20.2c0-0.1,0-0.2,0.3-0.3
	c0.4-0.1,1.5-0.4,2.7-0.4c2.9,0,3.6,1.6,3.6,3.3v16h7V23.4c0-1.5-0.1-2.4-0.3-3.1C80.5,17.3,77.5,15.3,71.3,15.3 M97.8,34.5
	c-3.4,0-5.9-2.6-5.9-7.1c0-4.5,2.4-7.4,5.6-7.4c0.9,0,1.7,0.1,2.6,0.5l1.5-4.2c-1.5-0.8-3.1-1.1-5.2-1.1c-6.9,0-11.6,4.7-11.6,12.3
	c0,7.6,5,11.6,11.7,11.6c2.3,0,3.9-0.3,5.4-1.1l-1.5-4.2C99.4,34.3,98.7,34.5,97.8,34.5 M47.5,15.3c-3.6,0-6.9,0.8-9.2,1.7l1.4,3.8
	c1.7-0.8,4-1.4,6.3-1.4c2.6,0,4.3,0.7,4.3,3.2v1c-8.2,0.5-13.6,2.5-13.6,8.3c0,4.9,3.7,7.3,11,7.3c3.3,0,7.6-0.7,9-1.6
	c0.3-0.2,0.6-0.4,0.6-1V23.3C57.3,18.6,54.7,15.3,47.5,15.3 M50.3,34.1c0,0.3-0.2,0.6-0.4,0.7c-0.4,0.2-1.1,0.3-2.1,0.3
	c-2.7,0-4-1.3-4-3.3c0-2.6,2-4.2,6.6-4.3V34.1z M104.6,38.8h7V15.7h-7V38.8z M104.6,38.8h7V15.7h-7V38.8z M108.1,5.8
	c-2.1,0-4,1.4-4,3.5c0,2.1,1.8,3.5,4,3.5c2.1,0,4-1.4,4-3.5C112.1,7.2,110.2,5.8,108.1,5.8 M137.4,15.7h-12.7V9.2l-7,2v4.6h-3V20h3
	v12.3c0,3.9,2.2,6.8,7.3,6.8c2.3,0,4.3-0.5,5.5-1.3l-1.4-4c-0.6,0.4-1.5,0.6-2.1,0.6c-1.2,0-2.2-0.4-2.2-2.5V20h6.2
	c1.1,7.7,4.6,13.9,9.3,17.2c-1.5,3-4.4,5.6-7.6,6.8l2,5c11.5-4.8,17.4-20.3,18.4-33.3h-6.9c-0.2,7.3-1.5,12.5-3.4,16.7
	C139.5,29.2,137.6,22.9,137.4,15.7 M29.3,9.2c0.1,2.9-0.6,16.8-6,23.6c-5.4-6.8-6.1-20.7-6-23.6h-6.7c-0.1,4.6,0.9,21.2,10.5,29.1
	c0.1,0.1,0.4,0.3,0.8,0.3h2.8c0.4,0,0.7-0.2,0.8-0.3c9.6-8,10.6-24.5,10.5-29.1H29.3z"/>
</svg>
